<svg xmlns="http://www.w3.org/2000/svg" width="311.6" height="22.7" viewBox="0 0 311.6 22.7"><g fill="#FFF"><path d="M0 2.7V.3C2 0 4.3 0 6.6 0v6.5c0 .9-.1 2.2-.3 3.1.9-1.6 2.7-2.8 5-2.8 3.4 0 4.5 2.2 4.5 4.9v10.7H12v-9.7c0-1.6-.4-2.5-1.9-2.5-2 0-3.5 2.3-3.5 4.9v7.3H2.7V3C1.9 2.9.9 2.8 0 2.7zM26.2 22.7c-4.3 0-7.1-2.2-7.1-7.6 0-4.7 3.2-8.2 7.8-8.2 4.3 0 7.1 2.4 7.1 7.6-.1 4.8-3.3 8.2-7.8 8.2zm.3-12.5c-1.7 0-3.5 1.3-3.5 4.5 0 3.1 1.1 4.7 3.4 4.7 1.9 0 3.4-1.6 3.4-4.6.1-3-1-4.6-3.3-4.6zM43.1 22.7c-4.2 0-6.9-2.2-6.9-7.4 0-4.7 2.5-8.4 7.9-8.4 1 0 2.1.2 3.1.4l-.4 3.4c-.8-.3-1.8-.6-2.8-.6-2.5 0-3.7 1.8-3.7 4.7 0 2.6 1 4.4 3.6 4.4 1 0 2.2-.2 3-.6l.3 3.3c-1 .4-2.5.8-4.1.8zM48 2.7V.3c1.9-.3 4.3-.3 6.6-.3v6.5c0 .9-.1 2.2-.3 3.1.9-1.7 2.6-2.8 5-2.8 3.4 0 4.5 2.2 4.5 4.9v10.7H60v-9.7c0-1.6-.4-2.5-1.9-2.5-2 0-3.5 2.3-3.5 4.9v7.3h-3.9V3c-.8-.1-1.8-.2-2.7-.3zM70.9 22.7c-1.1 0-2.2-.1-3.2-.3l.1-3.2c.9.2 2.1.5 3.3.5 1.5 0 2.5-.6 2.5-1.6 0-2.7-6.1-1.2-6.1-6.3 0-2.7 2.2-4.9 6.5-4.9.9 0 1.9.1 2.8.3l-.1 3.1c-.9-.2-1.9-.4-2.8-.4-1.5 0-2.3.6-2.3 1.6 0 2.5 6.2 1.4 6.2 6.3-.1 2.9-2.8 4.9-6.9 4.9zM87 22.7c-4.2 0-6.9-2.2-6.9-7.4 0-4.7 2.5-8.4 7.9-8.4 1 0 2.1.2 3.1.4l-.4 3.4c-.8-.3-1.8-.6-2.8-.6-2.5 0-3.7 1.8-3.7 4.7 0 2.6 1 4.4 3.6 4.4 1 0 2.2-.2 3-.6l.3 3.3c-1 .4-2.5.8-4.1.8zM91.9 2.7V.3c1.9-.3 4.3-.3 6.5-.3v6.5c0 .9-.1 2.2-.3 3.1.9-1.7 2.6-2.8 5-2.8 3.4 0 4.5 2.2 4.5 4.9v10.7h-3.9v-9.7c0-1.6-.4-2.5-1.9-2.5-2 0-3.5 2.3-3.5 4.9v7.3h-3.9V3c-.6-.1-1.7-.2-2.5-.3zM122.7 22.4c0-.7 0-1.9.2-2.7h-.1c-.9 1.8-2.7 3.1-5.1 3.1-3.5 0-4.6-2.2-4.6-4.9v-7.7c-.7-.1-1.7-.2-2.6-.3V7.4c2-.2 4.4-.3 6.5-.3v9.8c0 1.6.4 2.5 1.9 2.5 2 0 3.5-2.3 3.5-4.9V7.2h3.9v12.2c.7.1 1.8.2 2.7.3v2.4c-2 .3-4.3.4-6.3.3zM135.6 22.4h-3.9V3c-.7-.1-1.8-.2-2.7-.3V.3c2-.2 4.3-.3 6.6-.3v22.4zM152.4 15.4H143c0 2.8 1.4 4.2 4.2 4.2 1.5 0 3.1-.3 4.4-.9l.4 3c-1.6.6-3.5 1-5.4 1-4.8 0-7.5-2.4-7.5-7.8 0-4.6 2.6-8.1 7.1-8.1 4.4 0 6.4 3 6.4 6.8-.1.5-.1 1.2-.2 1.8zM146 9.7c-1.6 0-2.8 1.2-3 3h5.6c.1-1.9-1-3-2.6-3zM182.1 22.4v-9.6c0-1.6-.4-2.6-1.8-2.6-1.7 0-3.5 2-3.5 5v7.3H173v-9.6c0-1.5-.3-2.6-1.8-2.6-1.8 0-3.5 2.1-3.5 5v7.3h-3.9V10.2c-.7-.1-1.8-.2-2.7-.3V7.4c1.9-.2 4.3-.3 6.3-.3 0 .7-.1 1.9-.2 2.8.9-1.9 2.8-3.1 5-3.1 2.7 0 3.8 1.6 4.2 3.1.7-1.5 2.4-3.1 5-3.1 2.9 0 4.6 1.6 4.6 5.1v10.5h-3.9zM198.7 22.4c0-.9 0-1.8.2-2.6-.7 1.7-2.6 2.9-4.9 2.9-2.8 0-4.3-1.6-4.3-4 0-3.6 3.6-5.6 8.8-5.6v-.8c0-1.6-.8-2.4-3-2.4-1.4 0-3.2.5-4.5 1.2l-.3-3.3c1.5-.6 3.5-.9 5.4-.9 4.9 0 6.3 2 6.3 5.3v7.2c.7.1 1.8.2 2.7.3v2.4c-2.1.3-4.5.4-6.4.3zm-.3-6.8c-4.1 0-5 1.2-5 2.4 0 1 .7 1.6 1.8 1.6 1.9 0 3.2-1.8 3.2-3.7v-.3zM211.9 9.9c.9-1.8 2.7-3 5.2-3 3.4 0 4.5 2.2 4.5 4.9v10.7h-3.9v-9.7c0-1.6-.4-2.5-1.9-2.5-2 0-3.5 2.3-3.5 4.9v7.3h-3.9V10.2c-.7-.1-1.8-.2-2.7-.3V7.4c1.9-.2 4.3-.3 6.3-.3.1.8.1 2-.1 2.8zM230.6 9.9c.9-1.8 2.7-3 5.2-3 3.4 0 4.5 2.2 4.5 4.9v10.7h-3.9v-9.7c0-1.6-.4-2.5-1.9-2.5-2 0-3.5 2.3-3.5 4.9v7.3h-3.9V10.2c-.7-.1-1.8-.2-2.7-.3V7.4c1.9-.2 4.3-.3 6.3-.3.1.8 0 2-.1 2.8zM242.2 2.7V.3c2-.2 4.3-.3 6.6-.3v6.5c0 .9-.1 2.2-.3 3.1.9-1.7 2.6-2.8 5-2.8 3.4 0 4.5 2.2 4.5 4.9v10.7h-3.9v-9.7c0-1.6-.4-2.5-1.9-2.5-2 0-3.5 2.3-3.5 4.9v7.3h-3.9V3c-.6-.1-1.7-.2-2.6-.3zM274.9 15.4h-9.4c0 2.8 1.4 4.2 4.2 4.2 1.5 0 3.1-.3 4.4-.9l.4 3c-1.6.6-3.5 1-5.4 1-4.8 0-7.5-2.4-7.5-7.8 0-4.6 2.6-8.1 7.1-8.1 4.4 0 6.4 3 6.4 6.8-.1.5-.1 1.2-.2 1.8zm-6.4-5.7c-1.6 0-2.8 1.2-3 3h5.6c.1-1.9-.9-3-2.6-3zM284 22.4h-3.9V10.2c-.7-.1-1.8-.2-2.7-.3V7.4c1.9-.2 4.3-.3 6.5-.3v15.3zm-2-17.2c-1.3 0-2.4-1.1-2.4-2.4 0-1.3 1.1-2.4 2.4-2.4 1.3 0 2.4 1 2.4 2.4.1 1.3-1 2.4-2.4 2.4zM307.7 22.4v-9.6c0-1.6-.4-2.6-1.8-2.6-1.7 0-3.5 2-3.5 5v7.3h-3.9v-9.6c0-1.5-.3-2.6-1.8-2.6-1.8 0-3.5 2.1-3.5 5v7.3h-3.9V10.2c-.7-.1-1.8-.2-2.7-.3V7.4c1.9-.2 4.3-.3 6.3-.3 0 .7-.1 1.9-.2 2.8.9-1.9 2.8-3.1 5-3.1 2.7 0 3.8 1.6 4.2 3.1.7-1.5 2.4-3.1 5-3.1 2.9 0 4.6 1.6 4.6 5.1v10.5h-3.8z"/></g></svg>