<svg xmlns="http://www.w3.org/2000/svg" width="81.3" height="81.3" viewBox="0 0 81.3 81.3"><g fill="#FFF"><path d="M0 0h7.1v7.1H0zM0 8.9h7.1v2.6H0zM0 14.2h7.1v2.6H0zM0 19.9h7.1v2.6H0zM0 26.1h7.1v2.6H0zM0 32.6h7.1v2.6H0zM0 39.3h7.1v2.6H0zM0 46h7.1v2.6H0zM0 52.6h7.1v2.6H0zM0 58.7h7.1v2.6H0zM0 64.5h7.1v2.6H0zM0 69.7h7.1v2.6H0zM0 74.2h7.1v7.1H0z"/><g><path d="M8.9 0h2.6v7.1H8.9zM8.9 8.9h2.6v2.6H8.9zM8.9 14.2h2.6v2.6H8.9zM8.9 19.9h2.6v2.6H8.9zM8.9 26.1h2.6v2.6H8.9zM8.9 32.6h2.6v2.6H8.9zM8.9 39.3h2.6v2.6H8.9zM8.9 46h2.6v2.6H8.9zM8.9 52.6h2.6v2.6H8.9zM8.9 58.7h2.6v2.6H8.9zM8.9 64.5h2.6v2.6H8.9zM8.9 69.7h2.6v2.6H8.9zM8.9 74.2h2.6v7.1H8.9z"/></g><g><path d="M14.2 0h2.6v7.1h-2.6zM14.2 8.9h2.6v2.6h-2.6zM14.2 14.2h2.6v2.6h-2.6zM14.2 19.9h2.6v2.6h-2.6zM14.2 26.1h2.6v2.6h-2.6zM14.2 32.6h2.6v2.6h-2.6zM14.2 39.3h2.6v2.6h-2.6zM14.2 46h2.6v2.6h-2.6zM14.2 52.6h2.6v2.6h-2.6zM14.2 58.7h2.6v2.6h-2.6zM14.2 64.5h2.6v2.6h-2.6zM14.2 69.7h2.6v2.6h-2.6zM14.2 74.2h2.6v7.1h-2.6z"/></g><g><path d="M19.9 0h2.6v7.1h-2.6zM19.9 8.9h2.6v2.6h-2.6zM19.9 14.2h2.6v2.6h-2.6zM19.9 19.9h2.6v2.6h-2.6zM19.9 26.1h2.6v2.6h-2.6zM19.9 32.6h2.6v2.6h-2.6zM19.9 39.3h2.6v2.6h-2.6zM19.9 46h2.6v2.6h-2.6zM19.9 52.6h2.6v2.6h-2.6zM19.9 58.7h2.6v2.6h-2.6zM19.9 64.5h2.6v2.6h-2.6zM19.9 69.7h2.6v2.6h-2.6zM19.9 74.2h2.6v7.1h-2.6z"/></g><g><path d="M26.1 0h2.6v7.1h-2.6zM26.1 8.9h2.6v2.6h-2.6zM26.1 14.2h2.6v2.6h-2.6zM26.1 19.9h2.6v2.6h-2.6zM26.1 26.1h2.6v2.6h-2.6zM26.1 32.6h2.6v2.6h-2.6zM26.1 39.3h2.6v2.6h-2.6zM26.1 46h2.6v2.6h-2.6zM26.1 52.6h2.6v2.6h-2.6zM26.1 58.7h2.6v2.6h-2.6zM26.1 64.5h2.6v2.6h-2.6zM26.1 69.7h2.6v2.6h-2.6zM26.1 74.2h2.6v7.1h-2.6z"/></g><g><path d="M32.6 0h2.6v7.1h-2.6zM32.6 8.9h2.6v2.6h-2.6zM32.6 14.2h2.6v2.6h-2.6zM32.6 19.9h2.6v2.6h-2.6zM32.6 26.1h2.6v2.6h-2.6zM32.6 32.6h2.6v2.6h-2.6zM32.6 39.3h2.6v2.6h-2.6zM32.6 46h2.6v2.6h-2.6zM32.6 52.6h2.6v2.6h-2.6zM32.6 58.7h2.6v2.6h-2.6zM32.6 64.5h2.6v2.6h-2.6zM32.6 69.7h2.6v2.6h-2.6zM32.6 74.2h2.6v7.1h-2.6z"/></g><g><path d="M39.3 0h2.6v7.1h-2.6zM39.3 8.9h2.6v2.6h-2.6zM39.3 14.2h2.6v2.6h-2.6zM39.3 19.9h2.6v2.6h-2.6zM39.3 26.1h2.6v2.6h-2.6zM39.3 32.6h2.6v2.6h-2.6zM39.3 39.3h2.6v2.6h-2.6zM39.3 46h2.6v2.6h-2.6zM39.3 52.6h2.6v2.6h-2.6zM39.3 58.7h2.6v2.6h-2.6zM39.3 64.5h2.6v2.6h-2.6zM39.3 69.7h2.6v2.6h-2.6zM39.3 74.2h2.6v7.1h-2.6z"/></g><g><path d="M74.2 0h7.1v7.1h-7.1zM74.2 8.9h7.1v2.6h-7.1zM74.2 14.2h7.1v2.6h-7.1zM74.2 19.9h7.1v2.6h-7.1zM74.2 26.1h7.1v2.6h-7.1zM74.2 32.6h7.1v2.6h-7.1zM74.2 39.3h7.1v2.6h-7.1zM74.2 46h7.1v2.6h-7.1zM74.2 52.6h7.1v2.6h-7.1zM74.2 58.7h7.1v2.6h-7.1zM74.2 64.5h7.1v2.6h-7.1zM74.2 69.7h7.1v2.6h-7.1zM74.2 74.2h7.1v7.1h-7.1z"/></g><g><path d="M69.7 0h2.6v7.1h-2.6zM69.7 8.9h2.6v2.6h-2.6zM69.7 14.2h2.6v2.6h-2.6zM69.7 19.9h2.6v2.6h-2.6zM69.7 26.1h2.6v2.6h-2.6zM69.7 32.6h2.6v2.6h-2.6zM69.7 39.3h2.6v2.6h-2.6zM69.7 46h2.6v2.6h-2.6zM69.7 52.6h2.6v2.6h-2.6zM69.7 58.7h2.6v2.6h-2.6zM69.7 64.5h2.6v2.6h-2.6zM69.7 69.7h2.6v2.6h-2.6zM69.7 74.2h2.6v7.1h-2.6z"/></g><g><path d="M64.5 0h2.6v7.1h-2.6zM64.5 8.9h2.6v2.6h-2.6zM64.5 14.2h2.6v2.6h-2.6zM64.5 19.9h2.6v2.6h-2.6zM64.5 26.1h2.6v2.6h-2.6zM64.5 32.6h2.6v2.6h-2.6zM64.5 39.3h2.6v2.6h-2.6zM64.5 46h2.6v2.6h-2.6zM64.5 52.6h2.6v2.6h-2.6zM64.5 58.7h2.6v2.6h-2.6zM64.5 64.5h2.6v2.6h-2.6zM64.5 69.7h2.6v2.6h-2.6zM64.5 74.2h2.6v7.1h-2.6z"/></g><g><path d="M58.7 0h2.6v7.1h-2.6zM58.7 8.9h2.6v2.6h-2.6zM58.7 14.2h2.6v2.6h-2.6zM58.7 19.9h2.6v2.6h-2.6zM58.7 26.1h2.6v2.6h-2.6zM58.7 32.6h2.6v2.6h-2.6zM58.7 39.3h2.6v2.6h-2.6zM58.7 46h2.6v2.6h-2.6zM58.7 52.6h2.6v2.6h-2.6zM58.7 58.7h2.6v2.6h-2.6zM58.7 64.5h2.6v2.6h-2.6zM58.7 69.7h2.6v2.6h-2.6zM58.7 74.2h2.6v7.1h-2.6z"/></g><g><path d="M52.6 0h2.6v7.1h-2.6zM52.6 8.9h2.6v2.6h-2.6zM52.6 14.2h2.6v2.6h-2.6zM52.6 19.9h2.6v2.6h-2.6zM52.6 26.1h2.6v2.6h-2.6zM52.6 32.6h2.6v2.6h-2.6zM52.6 39.3h2.6v2.6h-2.6zM52.6 46h2.6v2.6h-2.6zM52.6 52.6h2.6v2.6h-2.6zM52.6 58.7h2.6v2.6h-2.6zM52.6 64.5h2.6v2.6h-2.6zM52.6 69.7h2.6v2.6h-2.6zM52.6 74.2h2.6v7.1h-2.6z"/></g><g><path d="M46 0h2.6v7.1H46zM46 8.9h2.6v2.6H46zM46 14.2h2.6v2.6H46zM46 19.9h2.6v2.6H46zM46 26.1h2.6v2.6H46zM46 32.6h2.6v2.6H46zM46 39.3h2.6v2.6H46zM46 46h2.6v2.6H46zM46 52.6h2.6v2.6H46zM46 58.7h2.6v2.6H46zM46 64.5h2.6v2.6H46zM46 69.7h2.6v2.6H46zM46 74.2h2.6v7.1H46z"/></g></g></svg>